<svg aria-hidden="true" style="position: absolute; width: 0; height: 0; overflow: hidden;" version="1.1" xmlns="http://www.w3.org/2000/svg" xmlns:xlink="http://www.w3.org/1999/xlink">
<defs>
<symbol id="icon-chevron-right" viewBox="0 0 31 32">
<path d="M12.425 22.691l7.305-7.305-7.305-7.305-1.81 1.81 5.495 5.495-5.495 5.496 1.81 1.809z"></path>
</symbol>
<symbol id="icon-twitter" viewBox="0 0 32 32">
<path d="M22.901 5.657h3.68l-8.040 9.036 9.459 12.297h-7.405l-5.8-7.459-6.639 7.459h-3.683l8.6-9.667-9.073-11.667h7.593l5.244 6.816 6.064-6.816zM21.609 24.824h2.040l-13.164-17.115h-2.187l13.311 17.115z"></path>
</symbol>
<symbol id="icon-star-outline" viewBox="0 0 32 32">
<path stroke-linejoin="miter" stroke-linecap="butt" stroke-miterlimit="4" stroke-width="1.3333" d="M15.375 5.076c0.108-0.243 0.347-0.409 0.625-0.409s0.517 0.166 0.624 0.404l0.002 0.004 2.704 6.424c0.292 0.692 0.947 1.16 1.693 1.219l7.021 0.556c0.346 0.019 0.62 0.305 0.62 0.654 0 0.2-0.090 0.379-0.231 0.499l-0.001 0.001-5.351 4.528c-0.573 0.484-0.827 1.249-0.649 1.98l1.636 6.768c0.133 0.549-0.483 1.032-1.013 0.712h-0.001l-6.009-3.627c-0.298-0.182-0.658-0.29-1.044-0.29s-0.746 0.108-1.053 0.295l0.009-0.005-6.011 3.627c-0.531 0.32-1.147-0.163-1.013-0.712l1.636-6.768c0.035-0.139 0.055-0.299 0.055-0.463 0-0.607-0.273-1.151-0.703-1.515l-0.003-0.002-5.349-4.529c-0.142-0.121-0.232-0.3-0.232-0.5 0-0.349 0.273-0.634 0.617-0.654l0.002-0 7.021-0.556c0.763-0.061 1.4-0.54 1.688-1.206l0.005-0.013 2.707-6.424z"></path>
</symbol>
<symbol id="icon-chevrons-right" viewBox="0 0 32 32">
<path d="M13.728 10.28l5.765 5.72-5.767 5.72 1.877 1.893 7.676-7.613-7.676-7.613-1.877 1.893z"></path>
<path d="M8.939 8.387l-1.877 1.893 5.765 5.72-5.767 5.72 1.877 1.893 7.676-7.613-7.675-7.613z"></path>
</symbol>
<symbol id="icon-envelope" viewBox="0 0 32 32">
<path d="M26.667 5.333h-21.333c-1.471 0-2.667 1.196-2.667 2.667v16c0 1.471 1.196 2.667 2.667 2.667h21.333c1.471 0 2.667-1.196 2.667-2.667v-16c0-1.471-1.196-2.667-2.667-2.667zM26.667 8v0.681l-10.667 8.297-10.667-8.296v-0.683h21.333zM5.333 24v-11.941l9.848 7.66c0.223 0.176 0.508 0.283 0.819 0.283s0.596-0.107 0.821-0.285l-0.003 0.002 9.848-7.66 0.003 11.941h-21.336z"></path>
</symbol>
<symbol id="icon-facebook" viewBox="0 0 32 32">
<path d="M29.333 16.405c0-7.409-5.969-13.415-13.333-13.415s-13.333 6.005-13.333 13.413c0 6.697 4.876 12.247 11.251 13.253v-9.373h-3.387v-3.88h3.387v-2.955c0-3.361 1.989-5.219 5.036-5.219 1.459 0 2.984 0.261 2.984 0.261v3.301h-1.68c-1.657 0-2.173 1.035-2.173 2.096v2.516h3.697l-0.591 3.877h-3.107v9.373c6.373-1.005 11.249-6.555 11.249-13.251z"></path>
</symbol>
<symbol id="icon-instagram" viewBox="0 0 32 32">
<path d="M15.999 6.16c3.205 0 3.585 0.016 4.845 0.072 1.173 0.052 1.804 0.248 2.227 0.413 0.557 0.215 0.96 0.477 1.377 0.893 0.423 0.423 0.68 0.821 0.9 1.379 0.164 0.423 0.36 1.060 0.413 2.227 0.056 1.267 0.069 1.645 0.069 4.847s-0.013 3.587-0.071 4.847c-0.051 1.173-0.248 1.804-0.412 2.227-0.202 0.54-0.507 1-0.894 1.377l-0.001 0.001c-0.423 0.423-0.821 0.68-1.379 0.9-0.421 0.164-1.059 0.36-2.227 0.413-1.265 0.056-1.644 0.069-4.845 0.069s-3.587-0.013-4.847-0.071c-1.173-0.051-1.805-0.248-2.227-0.412-0.541-0.203-1.001-0.508-1.378-0.895l-0.001-0.001c-0.388-0.378-0.694-0.838-0.891-1.352l-0.009-0.026c-0.164-0.421-0.36-1.059-0.413-2.227-0.055-1.265-0.069-1.644-0.069-4.847 0-3.2 0.013-3.584 0.071-4.845 0.052-1.173 0.248-1.805 0.413-2.227 0.215-0.559 0.477-0.96 0.893-1.379 0.378-0.388 0.838-0.695 1.353-0.891l0.026-0.009c0.423-0.164 1.060-0.36 2.227-0.413 1.261-0.055 1.64-0.069 4.847-0.069zM15.999 4c-3.257 0-3.665 0.015-4.945 0.071-1.275 0.057-2.151 0.263-2.911 0.559-0.833 0.318-1.542 0.79-2.126 1.386l-0.001 0.001c-0.596 0.584-1.068 1.293-1.373 2.084l-0.014 0.040c-0.296 0.764-0.503 1.635-0.56 2.909-0.053 1.285-0.069 1.693-0.069 4.951 0 3.259 0.013 3.665 0.071 4.945 0.056 1.275 0.263 2.152 0.557 2.911 0.318 0.833 0.79 1.542 1.386 2.126l0.001 0.001c0.584 0.595 1.293 1.065 2.084 1.369l0.040 0.014c0.764 0.296 1.636 0.503 2.911 0.559 1.28 0.056 1.687 0.071 4.944 0.071 3.259 0 3.667-0.013 4.947-0.071 1.273-0.056 2.151-0.263 2.909-0.559 0.831-0.317 1.539-0.788 2.122-1.382l0.001-0.001c0.665-0.667 1.079-1.335 1.383-2.123 0.296-0.764 0.501-1.635 0.559-2.911 0.056-1.28 0.071-1.687 0.071-4.944s-0.015-3.665-0.071-4.945c-0.057-1.275-0.263-2.151-0.559-2.911-0.306-0.837-0.775-1.55-1.372-2.132l-0.001-0.001c-0.584-0.594-1.292-1.064-2.083-1.368l-0.040-0.014c-0.764-0.296-1.635-0.503-2.911-0.559-1.284-0.061-1.691-0.076-4.948-0.076z"></path>
<path d="M15.997 9.836c-3.337 0.088-6.008 2.814-6.008 6.163s2.671 6.076 6 6.163l0.008 0c3.365-0.051 6.073-2.791 6.073-6.163s-2.708-6.112-6.069-6.163l-0.005-0zM15.997 19.996c-2.208 0-3.997-1.79-3.997-3.997s1.79-3.997 3.997-3.997v0c2.208 0 3.998 1.79 3.998 3.998s-1.79 3.998-3.998 3.998v0zM23.843 9.592c0.001 0.018 0.001 0.040 0.001 0.062 0 0.795-0.645 1.44-1.44 1.44s-1.44-0.645-1.44-1.44c0-0.022 0-0.043 0.001-0.065l-0 0.003c0.034-0.768 0.665-1.378 1.439-1.378s1.405 0.61 1.439 1.375l0 0.003z"></path>
</symbol>
<symbol id="icon-map" viewBox="0 0 32 32">
<path d="M16 18.667c2.941 0 5.333-2.392 5.333-5.333s-2.392-5.333-5.333-5.333-5.333 2.392-5.333 5.333 2.392 5.333 5.333 5.333zM16 10.667c1.471 0 2.667 1.196 2.667 2.667s-1.196 2.667-2.667 2.667-2.667-1.196-2.667-2.667 1.196-2.667 2.667-2.667z"></path>
<path d="M15.227 29.085c0.215 0.155 0.483 0.248 0.773 0.248s0.559-0.093 0.777-0.25l-0.004 0.003c0.405-0.287 9.933-7.165 9.893-15.752 0-5.881-4.785-10.667-10.667-10.667-5.88 0-10.667 4.785-10.667 10.66-0.039 8.593 9.488 15.472 9.893 15.759zM16 5.333c4.413 0 8 3.588 8 8.007 0.028 5.917-5.851 11.231-8 12.973-2.147-1.744-8.027-7.059-8-12.98 0-4.412 3.588-8 8-8z"></path>
</symbol>
<symbol id="icon-map-pin" viewBox="0 0 32 32">
<path d="M16 22.667l1.333-2.667v-6.856c2.295-0.596 4-2.667 4-5.144 0-2.941-2.392-5.333-5.333-5.333s-5.333 2.392-5.333 5.333c0 2.477 1.705 4.548 4 5.144v6.856l1.333 2.667zM13.333 8c0-1.471 1.196-2.667 2.667-2.667s2.667 1.196 2.667 2.667-1.196 2.667-2.667 2.667-2.667-1.196-2.667-2.667z"></path>
<path d="M21.689 14.084l-0.711 2.571c3.455 0.955 5.688 2.791 5.688 4.679 0 2.523-4.38 5.333-10.667 5.333s-10.667-2.811-10.667-5.333c0-1.888 2.233-3.724 5.689-4.68l-0.711-2.571c-4.716 1.304-7.645 4.081-7.645 7.251 0 4.485 5.857 8 13.333 8s13.333-3.515 13.333-8c0-3.169-2.929-5.947-7.644-7.249z"></path>
</symbol>
<symbol id="icon-menu" viewBox="0 0 32 32">
<path d="M5.333 8h21.333v2.667h-21.333v-2.667zM5.333 14.667h21.333v2.667h-21.333v-2.667zM5.333 21.333h21.333v2.667h-21.333v-2.667z"></path>
</symbol>
<symbol id="icon-phone" viewBox="0 0 32 32">
<path d="M23.609 16.391c-0.241-0.242-0.574-0.392-0.943-0.392s-0.702 0.15-0.943 0.391l-2.124 2.125c-0.985-0.293-2.824-0.96-3.989-2.125s-1.832-3.004-2.125-3.989l2.125-2.125c0.242-0.241 0.392-0.574 0.392-0.943s-0.15-0.702-0.391-0.943l-5.333-5.333c-0.241-0.242-0.574-0.391-0.943-0.391s-0.702 0.149-0.943 0.391l-3.617 3.616c-0.507 0.507-0.792 1.203-0.781 1.913 0.031 1.899 0.533 8.493 5.731 13.691s11.792 5.699 13.693 5.731h0.036c0.704 0 1.369-0.277 1.873-0.781l3.616-3.616c0.242-0.241 0.392-0.574 0.392-0.943s-0.15-0.702-0.391-0.943l-5.333-5.335zM23.44 25.34c-1.664-0.028-7.357-0.475-11.831-4.949-4.488-4.488-4.923-10.201-4.949-11.832l2.673-2.673 3.448 3.448-1.724 1.724c-0.242 0.241-0.391 0.575-0.391 0.943 0 0.097 0.010 0.191 0.030 0.282l-0.002-0.009c0.032 0.153 0.815 3.789 3.028 6.003s5.849 2.996 6.003 3.028c0.083 0.019 0.179 0.029 0.277 0.029 0.367 0 0.699-0.149 0.939-0.391l1.725-1.724 3.448 3.448-2.675 2.673z"></path>
</symbol>
<symbol id="icon-star-filled" viewBox="0 0 32 32">
<path d="M14.76 4.816c0.46-1.088 2.020-1.088 2.48 0l2.704 6.427c0.193 0.457 0.631 0.772 1.132 0.811l7.021 0.556c1.189 0.095 1.672 1.561 0.765 2.328l-5.349 4.529c-0.287 0.243-0.468 0.604-0.468 1.007 0 0.109 0.013 0.215 0.038 0.316l-0.002-0.009 1.633 6.769c0.277 1.147-0.987 2.053-2.004 1.44l-6.012-3.628c-0.199-0.122-0.441-0.194-0.699-0.194s-0.499 0.072-0.705 0.197l0.006-0.003-6.012 3.627c-1.019 0.615-2.281-0.292-2.004-1.439l1.633-6.769c0.023-0.092 0.036-0.198 0.036-0.307 0-0.403-0.181-0.764-0.466-1.005l-0.002-0.002-5.349-4.528c-0.907-0.767-0.424-2.233 0.765-2.328l7.021-0.556c0.503-0.040 0.939-0.353 1.133-0.812l2.704-6.425z"></path>
</symbol>
<symbol id="icon-x" viewBox="0 0 32 32">
<path d="M21.589 8.459l-5.657 5.656-5.656-5.656-1.885 1.885 5.656 5.656-5.656 5.656 1.885 1.885 5.656-5.656 5.657 5.656 1.885-1.885-5.656-5.656 5.656-5.656-1.885-1.885z"></path>
</symbol>
<symbol id="icon-checkmark" viewBox="0 0 34 32">
<path d="M33.4.279c-2.804 1.637-5.975 3.987-8.958 6.633-2.4 2.133-4.962 4.704-7.337 7.362a108.707 108.707 0 0 0-4.996 6.05 152.3 152.3 0 0 0-2.442 3.304c-.233.329-.358.488-.387.479-.021-.004-2.05-1.163-4.504-2.567L.309 18.982l-.104.117c-.054.067-.113.137-.125.158-.025.046.354.492 10.012 11.833l.775.913h.213l.604-1.221c2.992-6.029 5.929-10.988 9.258-15.646A94.352 94.352 0 0 1 33.45.932c.333-.308.604-.571.604-.583s-.183-.275-.221-.313c-.004-.004-.2.104-.433.242z"/>
</symbol>
</defs>
</svg>
